# AST/ASF file generated using VICON BodyLanguage
# -----------------------------------------------
:version 1.10
:name VICON
:units
  mass 1.0
  length 0.45
  angle deg
:documentation
   .ast/.asf automatically generated from VICON data using
   VICON BodyBuilder and BodyLanguage model FoxedUp or BRILLIANT.MOD
:root
   order TX TY TZ RX RY RZ
   axis XYZ
   position 0 0 0  
   orientation 0 0 0 
:bonedata
  begin
     id 1 
     name lhipjoint
     direction 0.597014 -0.743513 0.301268 
     length 2.48253 
     axis 0 0 0  XYZ
  end
  begin
     id 2 
     name lfemur
     direction 0.34202 -0.939693 0  
     length 7.51389  
     axis 0 0 20  XYZ
    dof rx ry rz
    limits (-160.0 20.0)
           (-70.0 70.0)
           (-60.0 70.0)
  end
  begin
     id 3 
     name ltibia
     direction 0.34202 -0.939693 0   
     length 7.54147   
     axis 0 0 20   XYZ
    dof rx
    limits (-10.0 170.0)
  end
  begin
     id 4 
     name lfoot
     direction 0.10378 -0.285133 0.952853   
     length 2.2132   
     axis -90 7.62852e-016 20   XYZ
    dof rx rz
    limits (-45.0 90.0)
           (-70.0 20.0)
  end
  begin
     id 5 
     name ltoes
     direction 1.5354e-011 -4.2171e-011 1   
     length 1.10362   
     axis -90 7.62852e-016 20   XYZ
    dof rx
    limits (-90.0 20.0)
  end
  begin
     id 6 
     name rhipjoint
     direction -0.591912 -0.747009 0.302685   
     length 2.47092  
     axis 0 0 0  XYZ 
  end
  begin
     id 7 
     name rfemur
     direction -0.34202 -0.939693 0   
     length 7.69991   
     axis 0 0 -20   XYZ
    dof rx ry rz
    limits (-160.0 20.0)
           (-70.0 70.0)
           (-70.0 60.0)
  end
  begin
     id 8 
     name rtibia
     direction -0.34202 -0.939693 0   
     length 7.40774   
     axis 0 0 -20   XYZ
    dof rx
    limits (-10.0 170.0)
 end
 begin
     id 9 
     name rfoot
     direction -0.0916245 -0.251736 0.963449   
     length 2.08235  
     axis -90 -7.62852e-016 -20   XYZ
    dof rx rz
    limits (-45.0 90.0)
           (-20.0 70.0)
  end
  begin
     id 10 
     name rtoes
     direction -1.53527e-011 -4.21878e-011 1   
     length 1.04369   
     axis -90 -7.62852e-016 -20   XYZ
    dof rx
    limits (-90.0 20.0)
  end
  begin
     id 11 
     name lowerback
     direction -0.0122523 0.991496 -0.12956   
     length 2.10814   
     axis 0 0 0   XYZ
    dof rx ry rz
    limits (-20.0 45.0)
           (-30.0 30.0)
           (-30.0 30.0)
  end
  begin
     id 12 
     name upperback
     direction 0.012378 0.999784 -0.0167122   
     length 2.11728   
     axis 0 0 0   XYZ
    dof rx ry rz
    limits (-20.0 45.0)
           (-30.0 30.0)
           (-30.0 30.0)
  end
  begin
     id 13 
     name thorax
     direction 0.0187236 0.998893 0.0431542   
     length 2.15267   
     axis 0 0 0   XYZ
    dof rx ry rz
    limits (-20.0 45.0)
           (-30.0 30.0)
           (-30.0 30.0)
  end
  begin
     id 14 
     name lowerneck
     direction 0.0165467 0.987304 0.157979   
     length 1.72129   
     axis 0 0 0   XYZ
    dof rx ry rz
    limits (-20.0 45.0)
           (-30.0 30.0)
           (-30.0 30.0)
  end
  begin
     id 15 
     name upperneck
     direction -0.0560236 0.986819 -0.151818   
     length 1.75382   
     axis 0 0 0   XYZ
    dof rx ry rz
    limits (-20.0 45.0)
           (-30.0 30.0)
           (-30.0 30.0)
  end
  begin
     id 16
     name head
     direction -0.0173602 0.99745 -0.0692312  
     length 1.76328  
     axis 0 0 0   XYZ
    dof rx ry rz
    limits (-20.0 45.0)
           (-30.0 30.0)
           (-30.0 30.0)
  end
  begin
     id 17 
     name lclavicle
     direction 0.957734 0.271724 -0.094399  
     length 3.5782  
     axis 0 0 0   XYZ
    dof ry rz
    limits (-20.0 10.0)
           (0.0 20.0)
  end
  begin
     id 18 
     name lhumerus
     direction 1 -4.48963e-011 1.21581e-027   
     length 5.25525   
     axis 180 -30 -90   XYZ
    dof rx ry rz
    limits (-60.0 90.0)
           (-90.0 90.0)
           (-90.0 90.0)
  end
  begin
     id 19
     name lradius
     direction 1 -4.48975e-011 3.71216e-028   
     length 3.35106   
     axis 180 -30 -90   XYZ
    dof rx
    limits (-10.0 170.0)
  end
  begin
     id 20
     name lwrist
     direction 1 -4.48957e-011 4.76535e-027   
     length 1.67553   
     axis -3.27501e-015 90 90   XYZ
    dof ry
    limits (-180.0 0.0)
 end
  begin
     id 21 
     name lhand
     direction 1 -4.49008e-011 9.52727e-027   
     length 0.574153   
     axis -6.08097e-015 90 90   XYZ
    dof rx rz
    limits (-90.0 90.0)
           (-45.0 45.0)
  end
  begin
     id 22 
     name lfingers
     direction 1 -4.48996e-011 1.90562e-026   
     length 0.462897   
     axis -1.21618e-014 90 90   XYZ
    dof rx
    limits (0.0 90.0)
  end
  begin
     id 23
     name lthumb
     direction 0.707107 -6.34908e-011 0.707107   
     length 0.66463   
     axis -90 45 -1.62303e-014   XYZ
    dof rx rz
    limits (-45.0 45.0)
           (-45.0 45.0)
  end
  begin
     id 24 
     name rclavicle
     direction -0.950439 0.29623 -0.0944132   
     length 3.45861  
     axis 0 0 0   XYZ 
    dof ry rz
    limits (-10.0 20.0)
           (-20.0 0.0)
  end
  begin
     id 25 
     name rhumerus
     direction -1 -4.48986e-011 1.25473e-027  
     length 5.33104   
     axis 180 30 90   XYZ
    dof rx ry rz
    limits (-90.0 60.0)
           (-90.0 90.0)
           (-90.0 90.0)
  end
  begin
     id 26 
     name rradius
     direction -1 -4.4894e-011 1.66273e-027   
     length 3.39883   
     axis 180 30 90   XYZ
    dof rx
    limits (-10.0 170.0)
  end
  begin
     id 27 
     name rwrist
     direction -1 -4.48946e-011 4.76572e-027   
     length 1.69941   
     axis -3.27501e-015 -90 -90   XYZ
    dof ry
    limits (-180.0 0.0)
  end
  begin
     id 28
     name rhand
     direction -1 -4.49028e-011 9.52595e-027   
     length 0.913886   
     axis -6.08097e-015 -90 -90   XYZ
    dof rx rz
    limits (-90.0 90.0)
           (-45.0 45.0)
  end
  begin
     id 29
     name rfingers
     direction -1 -4.48945e-011 1.9063e-026   
     length 0.736798   
     axis -1.21618e-014 -90 -90   XYZ
    dof rx
    limits (0.0 90.0)
  end
  begin
     id 30
     name rthumb
     direction -0.707107 -6.34966e-011 0.707107   
     length 1.0579   
     axis -90 -45 1.62303e-014   XYZ
    dof rx rz
    limits (-45.0 45.0)
           (-45.0 45.0)
  end
:hierarchy
  begin
    root lhipjoint rhipjoint lowerback
    lhipjoint lfemur
    lfemur ltibia
    ltibia lfoot
    lfoot ltoes
    rhipjoint rfemur
    rfemur rtibia
    rtibia rfoot
    rfoot rtoes
    lowerback upperback
    upperback thorax
    thorax lowerneck lclavicle rclavicle
    lowerneck upperneck
    upperneck head
    lclavicle lhumerus
    lhumerus lradius
    lradius lwrist
    lwrist lhand lthumb
    lhand lfingers
    rclavicle rhumerus
    rhumerus rradius
    rradius rwrist
    rwrist rhand rthumb
    rhand rfingers
  end

#!OML:ASF F:\VICON\USERDATA\INSTALL\rory3\rory3.ASF
:FULLY-SPECIFIED
:DEGREES
2451
root -4.51813 16.9659 41.3697 178.233 7.52196 -178.356
lowerback 17.5117 -0.325688 1.92847
upperback 4.17225 0.750235 2.71398
thorax -5.35844 0.633894 1.60044
lowerneck -19.3128 2.81156 5.47289
upperneck 23.2965 3.95101 -4.32264
head 10.9135 1.94821 -1.8496
rclavicle -3.598e-014 -4.92986e-014
rhumerus -15.5881 -11.672 -67.578
rradius 74.5119
rwrist -51.3347
rhand -9.83491 -5.73106
rfingers 7.12502
rthumb 16.1426 -35.0788
lclavicle -3.598e-014 -4.92986e-014
lhumerus -10.7249 8.13905 72.6475
lradius 62.5531
lwrist -8.93337
lhand -29.8522 17.2615
lfingers 7.12502
lthumb -3.17472 47.2176
rfemur -19.9521 -5.23512 18.7918
rtibia 46.1355
rfoot -18.6006 -6.47952
rtoes -4.75724
lfemur -24.865 3.43393 -23.3406
ltibia 52.4677
lfoot -24.7102 -7.24689
ltoes -13.8396
2452
root -4.5518 16.9447 41.2796 178.091 8.58009 -178.286
lowerback 17.3631 -0.238297 2.22483
upperback 4.40875 0.929293 2.71543
thorax -5.02619 0.731437 1.39525
lowerneck -20.5047 3.08961 5.80942
upperneck 23.531 4.09485 -4.22374
head 11.2451 2.02038 -1.84175
rclavicle 3.4191e-014 4.6118e-014
rhumerus -16.4619 -13.9325 -65.3264
rradius 74.7679
rwrist -52.2463
rhand -10.4872 -6.18816
rfingers 7.12502
rthumb 15.5145 -35.5857
lclavicle 3.4191e-014 4.6118e-014
lhumerus -10.4589 10.2509 70.2661
lradius 59.7512
lwrist -8.38747
lhand -29.4763 17.139
lfingers 7.12502
lthumb -2.81173 47.1002
rfemur -19.8111 -4.81323 18.7432
rtibia 46.5081
rfoot -18.7634 -5.87943
rtoes -4.10127
lfemur -25.0505 2.44135 -23.5607
ltibia 51.6036
lfoot -24.4095 -7.60374
ltoes -15.9262
2453
root -4.59009 16.9044 41.1828 177.844 9.56817 -178.235
lowerback 17.3868 -0.205088 2.27705
upperback 4.3896 1.00375 2.95783
thorax -5.06393 0.769724 1.6073
lowerneck -20.8339 3.34046 5.682
upperneck 23.7405 4.42875 -4.05052
head 11.4 2.17507 -1.7011
rclavicle -3.18055e-015 -2.8625e-014
rhumerus -17.977 -15.5995 -62.4913
rradius 75.0055
rwrist -53.0145
rhand -10.0736 -7.02687
rfingers 7.12502
rthumb 15.9128 -36.3931
lclavicle -3.18055e-015 -2.8625e-014
lhumerus -10.9783 13.0076 68.1192
lradius 56.9417
lwrist -8.0439
lhand -28.8265 17.2984
lfingers 7.12502
lthumb -2.18418 47.267
rfemur -19.7187 -4.61378 18.6287
rtibia 47.2735
rfoot -19.2951 -5.2367
rtoes -3.62638
lfemur -25.0576 1.44945 -23.7095
ltibia 50.9497
lfoot -23.9318 -8.11031
ltoes -17.2031
2454
root -4.63288 16.8759 41.0884 177.519 10.5857 -178.102
lowerback 17.4779 -0.170602 2.3839
upperback 4.25266 1.08538 3.20527
thorax -5.26333 0.804711 1.79226
lowerneck -20.4241 3.49571 5.716
upperneck 23.6781 4.65567 -3.99959
head 11.3099 2.29616 -1.65492
rclavicle 9.74045e-015 -4.13472e-014
rhumerus -19.8952 -17.147 -59.4347
rradius 75.0241
rwrist -53.2214
rhand -9.45774 -7.86447
rfingers 7.12502
rthumb 16.5058 -37.1824
lclavicle 9.74045e-015 -4.13472e-014
lhumerus -12.1659 15.4281 65.6235
lradius 54.417
lwrist -7.02932
lhand -28.287 17.8224
lfingers 7.12502
lthumb -1.66311 47.7957
rfemur -19.7327 -4.79289 18.5706
rtibia 48.3751
rfoot -19.4934 -4.36837
rtoes -3.82449
lfemur -24.4923 1.03666 -23.8017
ltibia 50.8378
lfoot -23.544 -6.99655
ltoes -16.9132
2455
root -4.67506 16.8083 41.0037 177.107 11.5591 -178.223
lowerback 17.6583 -0.212451 2.13257
upperback 4.09392 0.991695 3.35187
thorax -5.53376 0.75347 2.11208
lowerneck -19.7513 3.76366 6.02443
upperneck 23.4105 5.01551 -4.1642
head 11.1143 2.47674 -1.71631
rclavicle -1.74931e-014 -3.18055e-015
rhumerus -21.8111 -18.6213 -56.4516
rradius 74.7344
rwrist -52.6992
rhand -8.54827 -8.59921
rfingers 7.12502
rthumb 17.3812 -37.8421
lclavicle -1.74931e-014 -3.18055e-015
lhumerus -13.6632 18.1543 62.7011
lradius 51.9241
lwrist -5.90906
lhand -27.663 18.0229
lfingers 7.12502
lthumb -1.06043 48.0001
rfemur -20.1213 -5.4132 18.2195
rtibia 50.0242
rfoot -19.4823 -3.41948
rtoes -4.32376
lfemur -23.577 0.863844 -24.0838
ltibia 51.0308
lfoot -24.6657 -6.04239
ltoes -20.3633
2456
root -4.70969 16.7444 40.9245 176.733 12.4361 -178.377
lowerback 17.9232 -0.218394 1.82355
upperback 3.81161 0.91837 3.41824
thorax -5.98088 0.706095 2.37726
lowerneck -18.8092 4.00993 6.35571
upperneck 22.9476 5.32683 -4.25392
head 10.7936 2.65034 -1.76714
rclavicle -2.20651e-014 -3.81667e-014
rhumerus -24.5368 -19.7313 -53.2535
rradius 74.7224
rwrist -52.2664
rhand -8.20628 -9.05965
rfingers 7.12502
rthumb 17.7103 -38.2731
lclavicle -2.20651e-014 -3.81667e-014
lhumerus -15.392 20.5241 59.4895
lradius 49.545
lwrist -4.49221
lhand -26.9866 17.6281
lfingers 7.12502
lthumb -0.407122 47.6075
rfemur -20.818 -6.14766 17.866
rtibia 52.1503
rfoot -19.4062 -2.4164
rtoes -5.54319
lfemur -23.0329 1.0717 -24.3559
ltibia 51.5207
lfoot -25.5824 -5.58207
ltoes -22.5038
2457
root -4.74639 16.6854 40.8558 176.34 13.5929 -178.668
lowerback 17.9034 -0.106866 1.50803
upperback 3.88669 0.986293 3.31417
thorax -5.89367 0.73945 2.43003
lowerneck -18.3775 4.32303 6.82292
upperneck 22.5255 5.62873 -4.30124
head 10.5924 2.81962 -1.8225
rclavicle 2.38542e-014 -3.18055e-014
rhumerus -27.5576 -20.5591 -50.1776
rradius 75.182
rwrist -52.6752
rhand -8.93504 -9.37881
rfingers 7.12502
rthumb 17.009 -38.6541
lclavicle 2.38542e-014 -3.18055e-014
lhumerus -16.4616 23.3648 56.31
lradius 47.1164
lwrist -3.46988
lhand -27.4505 19.1667
lfingers 7.12502
lthumb -0.85518 49.1447
rfemur -21.9688 -6.56544 17.3809
rtibia 54.7669
rfoot -18.7617 -1.45978
rtoes -4.26555
lfemur -22.6799 1.76877 -24.7579
ltibia 51.9529
lfoot -25.7294 -5.45003
ltoes -22.5065
2458
root -4.79634 16.6286 40.8083 176.109 15.5549 -179.123
lowerback 18.2109 0.337773 0.936293
upperback 3.81274 1.44342 3.22591
thorax -6.16214 0.959162 2.55618
lowerneck -18.1521 4.61907 7.08132
upperneck 22.2323 5.9291 -4.21478
head 10.4687 2.98332 -1.79333
rclavicle -1.55052e-014 2.94201e-014
rhumerus -30.0601 -22.5218 -47.0649
rradius 74.6282
rwrist -51.8928
rhand -8.77082 -9.88539
rfingers 7.12502
rthumb 17.167 -39.147
lclavicle -1.55052e-014 2.94201e-014
lhumerus -17.904 26.3769 53.0074
lradius 44.8125
lwrist -2.86511
lhand -27.0454 20.1597
lfingers 7.12502
lthumb -0.463926 50.139
rfemur -23.9866 -6.45358 16.8267
rtibia 57.7075
rfoot -16.9628 -0.847378
rtoes -4.41289
lfemur -22.7018 3.27087 -25.2911
ltibia 52.3725
lfoot -25.7462 -5.45281
ltoes -22.4916
2459
root -4.85046 16.5916 40.722 175.237 15.3128 -179.525
lowerback 18.6256 -0.128469 0.969249
upperback 4.00319 0.86564 3.08599
thorax -6.15304 0.689596 2.52011
lowerneck -17.9591 4.92366 7.26426
upperneck 21.8983 6.27062 -4.17912
head 10.3392 3.15153 -1.76423
rclavicle 5.56597e-015 -3.57812e-014
rhumerus -32.7439 -24.2065 -43.8305
rradius 73.6713
rwrist -51.3339
rhand -7.72251 -10.1218
rfingers 7.12502
rthumb 18.1758 -39.2926
lclavicle 5.56597e-015 -3.57812e-014
lhumerus -19.466 28.5039 49.9494
lradius 42.9796
lwrist -0.248286
lhand -26.4943 20.4381
lfingers 7.12502
lthumb 0.0683805 50.4178
rfemur -24.8656 -8.07316 15.9131
rtibia 60.6119
rfoot -15.3389 -0.99286
rtoes -2.92035
lfemur -21.6924 3.0274 -25.9595
ltibia 52.6595
lfoot -25.8589 -5.74612
ltoes -21.8346
2460
root -4.90663 16.5544 40.6351 174.571 15.4911 -179.747
lowerback 19.0139 -0.397111 0.973687
upperback 4.08599 0.557296 3.18083
thorax -6.26019 0.551807 2.6933
lowerneck -17.6168 5.17507 7.11118
upperneck 21.4975 6.65102 -4.1593
head 10.1486 3.313 -1.68423
rclavicle -2.70347e-014 9.54166e-015
rhumerus -35.8829 -25.3088 -40.0563
rradius 72.6028
rwrist -51.1569
rhand -6.43529 -10.1957
rfingers 7.12502
rthumb 19.4139 -39.2465
lclavicle -2.70347e-014 9.54166e-015
lhumerus -21.5839 30.7759 46.9246
lradius 41.1357
lwrist 1.3962
lhand -27.3351 22.8652
lfingers 7.12502
lthumb -0.743733 52.8436
rfemur -26.1023 -9.19143 15.2226
rtibia 63.1801
rfoot -13.533 -1.79832
rtoes -0.319879
lfemur -20.7969 3.20447 -26.425
ltibia 52.8597
lfoot -25.9989 -6.09881
ltoes -20.5559
2461
root -4.95704 16.5235 40.5534 174.189 15.9175 -179.792
lowerback 19.3909 -0.518065 0.929225
upperback 4.03444 0.435827 3.41958
thorax -6.51396 0.502543 3.00915
lowerneck -17.3001 5.46122 7.11535
upperneck 21.1792 7.09209 -4.34081
head 10.0108 3.49551 -1.69232
rclavicle -1.31198e-014 8.74653e-015
rhumerus -39.1539 -25.9136 -36.2272
rradius 71.2805
rwrist -50.7811
rhand -5.79688 -10.0923
rfingers 7.12502
rthumb 20.0276 -39.0801
lclavicle -1.31198e-014 8.74653e-015
lhumerus -24.0588 33.1355 43.8064
lradius 39.2476
lwrist 2.03744
lhand -26.3722 22.5689
lfingers 7.12502
lthumb 0.186219 52.5486
rfemur -27.7074 -9.84388 14.8155
rtibia 65.0968
rfoot -13.7881 -2.16547
rtoes -0.0749023
lfemur -20.2006 3.63232 -26.6258
ltibia 52.9874
lfoot -26.0784 -6.51858
ltoes -19.4916
2462
root -5.00021 16.5141 40.4593 173.577 15.3908 -179.993
lowerback 19.5211 -0.937272 1.03682
upperback 4.27367 -0.0491091 3.439
thorax -6.30225 0.282913 3.08519
lowerneck -17.3468 5.74021 7.23398
upperneck 20.8865 7.41277 -4.37893
head 9.94281 3.63668 -1.6791
rclavicle -2.42517e-014 -9.54166e-015
rhumerus -42.434 -26.8958 -32.6528
rradius 69.5644
rwrist -50.2479
rhand -5.32211 -9.94663
rfingers 7.12502
rthumb 20.4839 -38.8861
lclavicle -2.42517e-014 -9.54166e-015
lhumerus -26.1681 35.0617 40.8534
lradius 37.6412
lwrist 2.24048
lhand -25.1925 22.3875
lfingers 7.12502
lthumb 1.3256 52.3631
rfemur -28.9197 -10.9543 13.9759
rtibia 66.2525
rfoot -14.3935 -2.29849
rtoes 1.2477
lfemur -19.2366 3.29352 -27.0501
ltibia 52.9857
lfoot -26.0645 -7.20477
ltoes -17.2506
